<mxfile host="app.diagrams.net" modified="2023-10-12T11:16:39.852Z" agent="Mozilla/5.0 (Windows NT 10.0; Win64; x64) AppleWebKit/537.36 (KHTML, like Gecko) Chrome/117.0.0.0 Safari/537.36" etag="lC6-h63NkpiWUf1oeu7i" version="22.0.4" type="device">
  <diagram name="Page-1" id="E7mZ4aUifwHMD3Rqrj6b">
    <mxGraphModel dx="1221" dy="670" grid="1" gridSize="10" guides="1" tooltips="1" connect="1" arrows="1" fold="1" page="1" pageScale="1" pageWidth="900" pageHeight="1600" math="0" shadow="0">
      <root>
        <mxCell id="0" />
        <mxCell id="1" parent="0" />
        <mxCell id="bYa10c9uotbPqZzvQVCg-1" value="" style="rounded=0;whiteSpace=wrap;html=1;fillColor=none;" vertex="1" parent="1">
          <mxGeometry width="480" height="40" as="geometry" />
        </mxCell>
        <mxCell id="bYa10c9uotbPqZzvQVCg-2" value="LOGO" style="rounded=0;whiteSpace=wrap;html=1;fillColor=none;" vertex="1" parent="1">
          <mxGeometry width="120" height="40" as="geometry" />
        </mxCell>
        <mxCell id="bYa10c9uotbPqZzvQVCg-3" value="Get Started" style="rounded=0;whiteSpace=wrap;html=1;fillColor=none;" vertex="1" parent="1">
          <mxGeometry x="400" width="80" height="40" as="geometry" />
        </mxCell>
        <mxCell id="bYa10c9uotbPqZzvQVCg-4" value="Nav Buttons" style="rounded=0;whiteSpace=wrap;html=1;fillColor=none;" vertex="1" parent="1">
          <mxGeometry x="200" width="200" height="40" as="geometry" />
        </mxCell>
        <mxCell id="bYa10c9uotbPqZzvQVCg-5" value="" style="rounded=0;whiteSpace=wrap;html=1;fillColor=none;" vertex="1" parent="1">
          <mxGeometry y="80" width="480" height="240" as="geometry" />
        </mxCell>
        <mxCell id="bYa10c9uotbPqZzvQVCg-6" value="Nav Section" style="text;html=1;align=left;verticalAlign=top;whiteSpace=wrap;rounded=0;fillColor=default;strokeColor=default;" vertex="1" parent="1">
          <mxGeometry x="490" width="410" height="40" as="geometry" />
        </mxCell>
        <mxCell id="bYa10c9uotbPqZzvQVCg-8" value="Hero Section" style="text;html=1;align=left;verticalAlign=top;whiteSpace=wrap;rounded=0;fillColor=default;strokeColor=default;" vertex="1" parent="1">
          <mxGeometry x="490" y="80" width="410" height="240" as="geometry" />
        </mxCell>
        <mxCell id="bYa10c9uotbPqZzvQVCg-10" value="Hero Image" style="rounded=0;whiteSpace=wrap;html=1;fillColor=none;" vertex="1" parent="1">
          <mxGeometry x="240" y="80" width="240" height="240" as="geometry" />
        </mxCell>
        <mxCell id="bYa10c9uotbPqZzvQVCg-11" value="Heading" style="rounded=0;whiteSpace=wrap;html=1;fillColor=none;" vertex="1" parent="1">
          <mxGeometry y="80" width="240" height="160" as="geometry" />
        </mxCell>
        <mxCell id="bYa10c9uotbPqZzvQVCg-12" value="Get Started Button&lt;br&gt;Learn More Button" style="rounded=0;whiteSpace=wrap;html=1;fillColor=none;" vertex="1" parent="1">
          <mxGeometry y="240" width="240" height="80" as="geometry" />
        </mxCell>
        <mxCell id="bYa10c9uotbPqZzvQVCg-13" value="" style="rounded=0;whiteSpace=wrap;html=1;fillColor=none;" vertex="1" parent="1">
          <mxGeometry y="360" width="480" height="80" as="geometry" />
        </mxCell>
        <mxCell id="bYa10c9uotbPqZzvQVCg-14" value="Heading" style="rounded=0;whiteSpace=wrap;html=1;fillColor=none;" vertex="1" parent="1">
          <mxGeometry y="360" width="240" height="40" as="geometry" />
        </mxCell>
        <mxCell id="bYa10c9uotbPqZzvQVCg-15" value="Featured In Logos and Stuff" style="rounded=0;whiteSpace=wrap;html=1;fillColor=none;" vertex="1" parent="1">
          <mxGeometry y="400" width="480" height="40" as="geometry" />
        </mxCell>
        <mxCell id="bYa10c9uotbPqZzvQVCg-16" value="Featured In Section:&lt;br&gt;&amp;nbsp;- Featured Ins are stacked next to each other while overflow is scroll." style="text;html=1;align=left;verticalAlign=top;whiteSpace=wrap;rounded=0;fillColor=default;strokeColor=default;" vertex="1" parent="1">
          <mxGeometry x="490" y="360" width="410" height="80" as="geometry" />
        </mxCell>
        <mxCell id="bYa10c9uotbPqZzvQVCg-17" value="" style="rounded=0;whiteSpace=wrap;html=1;fillColor=none;" vertex="1" parent="1">
          <mxGeometry y="480" width="480" height="200" as="geometry" />
        </mxCell>
        <mxCell id="bYa10c9uotbPqZzvQVCg-18" value="Heading" style="rounded=0;whiteSpace=wrap;html=1;fillColor=none;" vertex="1" parent="1">
          <mxGeometry y="480" width="240" height="40" as="geometry" />
        </mxCell>
        <mxCell id="bYa10c9uotbPqZzvQVCg-23" value="Icon&lt;br&gt;Heading&lt;br&gt;Text" style="rounded=0;whiteSpace=wrap;html=1;fillColor=none;" vertex="1" parent="1">
          <mxGeometry y="520" width="240" height="80" as="geometry" />
        </mxCell>
        <mxCell id="bYa10c9uotbPqZzvQVCg-27" value="" style="rounded=0;whiteSpace=wrap;html=1;fillColor=none;" vertex="1" parent="1">
          <mxGeometry y="720" width="480" height="520" as="geometry" />
        </mxCell>
        <mxCell id="bYa10c9uotbPqZzvQVCg-28" value="Features Section" style="text;html=1;align=left;verticalAlign=top;whiteSpace=wrap;rounded=0;fillColor=default;strokeColor=default;" vertex="1" parent="1">
          <mxGeometry x="490" y="480" width="410" height="200" as="geometry" />
        </mxCell>
        <mxCell id="bYa10c9uotbPqZzvQVCg-29" value="Steps/How It Works Section" style="text;html=1;align=left;verticalAlign=top;whiteSpace=wrap;rounded=0;fillColor=default;strokeColor=default;" vertex="1" parent="1">
          <mxGeometry x="490" y="720" width="410" height="520" as="geometry" />
        </mxCell>
        <mxCell id="bYa10c9uotbPqZzvQVCg-30" value="Heading" style="rounded=0;whiteSpace=wrap;html=1;fillColor=none;" vertex="1" parent="1">
          <mxGeometry y="720" width="240" height="40" as="geometry" />
        </mxCell>
        <mxCell id="bYa10c9uotbPqZzvQVCg-35" value="App Image" style="rounded=0;whiteSpace=wrap;html=1;fillColor=none;" vertex="1" parent="1">
          <mxGeometry x="320" y="760" width="160" height="160" as="geometry" />
        </mxCell>
        <mxCell id="bYa10c9uotbPqZzvQVCg-36" value="Step Description" style="rounded=0;whiteSpace=wrap;html=1;fillColor=none;" vertex="1" parent="1">
          <mxGeometry y="760" width="320" height="160" as="geometry" />
        </mxCell>
        <mxCell id="bYa10c9uotbPqZzvQVCg-39" value="" style="rounded=0;whiteSpace=wrap;html=1;fillColor=none;" vertex="1" parent="1">
          <mxGeometry y="1280" width="480" height="280" as="geometry" />
        </mxCell>
        <mxCell id="bYa10c9uotbPqZzvQVCg-41" value="Diets and Sample Meals Section:&lt;br&gt;&amp;nbsp;- Diets are supposed to be clickable buttons.&lt;br&gt;&amp;nbsp;- - Based on clicked button states, sample meal cards are refreshed." style="text;html=1;align=left;verticalAlign=top;whiteSpace=wrap;rounded=0;fillColor=default;strokeColor=default;" vertex="1" parent="1">
          <mxGeometry x="490" y="1280" width="410" height="280" as="geometry" />
        </mxCell>
        <mxCell id="bYa10c9uotbPqZzvQVCg-42" value="Heading" style="rounded=0;whiteSpace=wrap;html=1;fillColor=none;" vertex="1" parent="1">
          <mxGeometry y="1280" width="240" height="40" as="geometry" />
        </mxCell>
        <mxCell id="bYa10c9uotbPqZzvQVCg-50" value="App Image" style="rounded=0;whiteSpace=wrap;html=1;fillColor=none;" vertex="1" parent="1">
          <mxGeometry x="320" y="1080" width="160" height="160" as="geometry" />
        </mxCell>
        <mxCell id="bYa10c9uotbPqZzvQVCg-51" value="Step Description" style="rounded=0;whiteSpace=wrap;html=1;fillColor=none;" vertex="1" parent="1">
          <mxGeometry y="1080" width="320" height="160" as="geometry" />
        </mxCell>
        <mxCell id="bYa10c9uotbPqZzvQVCg-53" value="Step Description" style="rounded=0;whiteSpace=wrap;html=1;fillColor=none;" vertex="1" parent="1">
          <mxGeometry x="160" y="920" width="320" height="160" as="geometry" />
        </mxCell>
        <mxCell id="bYa10c9uotbPqZzvQVCg-54" value="App Image" style="rounded=0;whiteSpace=wrap;html=1;fillColor=none;" vertex="1" parent="1">
          <mxGeometry y="920" width="160" height="160" as="geometry" />
        </mxCell>
        <mxCell id="bYa10c9uotbPqZzvQVCg-56" value="Icon&lt;br&gt;Heading&lt;br&gt;Text" style="rounded=0;whiteSpace=wrap;html=1;fillColor=none;" vertex="1" parent="1">
          <mxGeometry x="240" y="520" width="240" height="80" as="geometry" />
        </mxCell>
        <mxCell id="bYa10c9uotbPqZzvQVCg-57" value="Icon&lt;br&gt;Heading&lt;br&gt;Text" style="rounded=0;whiteSpace=wrap;html=1;fillColor=none;" vertex="1" parent="1">
          <mxGeometry y="600" width="240" height="80" as="geometry" />
        </mxCell>
        <mxCell id="bYa10c9uotbPqZzvQVCg-58" value="Icon&lt;br&gt;Heading&lt;br&gt;Text" style="rounded=0;whiteSpace=wrap;html=1;fillColor=none;" vertex="1" parent="1">
          <mxGeometry x="240" y="600" width="240" height="80" as="geometry" />
        </mxCell>
        <mxCell id="bYa10c9uotbPqZzvQVCg-61" value="List of Diets Buttons:&lt;br&gt;- Diet Name&lt;br&gt;- Diet Name&lt;br&gt;- Diet Name&lt;br&gt;- Diet Name&lt;br&gt;- Diet Name&lt;br&gt;- Diet Name&lt;br&gt;- Diet Name&lt;br&gt;- Diet Name&lt;br&gt;- Diet Name" style="rounded=0;whiteSpace=wrap;html=1;fillColor=none;" vertex="1" parent="1">
          <mxGeometry y="1320" width="120" height="240" as="geometry" />
        </mxCell>
        <mxCell id="bYa10c9uotbPqZzvQVCg-62" value="Sample Meal Card:&lt;br&gt;- Food Properties&lt;br&gt;- Food Properties&lt;br&gt;- Food Properties&lt;br&gt;- Food Properties&lt;br&gt;- Food Properties" style="rounded=0;whiteSpace=wrap;html=1;fillColor=none;" vertex="1" parent="1">
          <mxGeometry x="120" y="1320" width="120" height="240" as="geometry" />
        </mxCell>
        <mxCell id="bYa10c9uotbPqZzvQVCg-65" value="Sample Meal Card:&lt;br&gt;- Food Properties&lt;br&gt;- Food Properties&lt;br&gt;- Food Properties&lt;br&gt;- Food Properties&lt;br&gt;- Food Properties" style="rounded=0;whiteSpace=wrap;html=1;fillColor=none;" vertex="1" parent="1">
          <mxGeometry x="240" y="1320" width="120" height="240" as="geometry" />
        </mxCell>
        <mxCell id="bYa10c9uotbPqZzvQVCg-66" value="Sample Meal Card:&lt;br&gt;- Food Properties&lt;br&gt;- Food Properties&lt;br&gt;- Food Properties&lt;br&gt;- Food Properties&lt;br&gt;- Food Properties" style="rounded=0;whiteSpace=wrap;html=1;fillColor=none;" vertex="1" parent="1">
          <mxGeometry x="360" y="1320" width="120" height="240" as="geometry" />
        </mxCell>
        <mxCell id="bYa10c9uotbPqZzvQVCg-67" value="" style="rounded=0;whiteSpace=wrap;html=1;fillColor=#dae8fc;strokeColor=#6c8ebf;" vertex="1" parent="1">
          <mxGeometry y="1600" width="240" height="360" as="geometry" />
        </mxCell>
        <mxCell id="bYa10c9uotbPqZzvQVCg-68" value="Heading" style="rounded=0;whiteSpace=wrap;html=1;fillColor=none;" vertex="1" parent="1">
          <mxGeometry y="1600" width="240" height="40" as="geometry" />
        </mxCell>
        <mxCell id="bYa10c9uotbPqZzvQVCg-69" value="Testimonials and Image Gallery Section:&lt;br&gt;&amp;nbsp;- Images supposed to be clickable.&lt;br&gt;&amp;nbsp;- - Clicked images opens a slideshow modal." style="text;html=1;align=left;verticalAlign=top;whiteSpace=wrap;rounded=0;fillColor=default;strokeColor=default;" vertex="1" parent="1">
          <mxGeometry x="490" y="1600" width="410" height="360" as="geometry" />
        </mxCell>
        <mxCell id="bYa10c9uotbPqZzvQVCg-70" value="Testimonial&lt;br&gt;Image - Person" style="rounded=0;whiteSpace=wrap;html=1;fillColor=none;" vertex="1" parent="1">
          <mxGeometry y="1640" width="120" height="160" as="geometry" />
        </mxCell>
        <mxCell id="bYa10c9uotbPqZzvQVCg-71" value="Testimonial&lt;br&gt;Image - Person" style="rounded=0;whiteSpace=wrap;html=1;fillColor=none;" vertex="1" parent="1">
          <mxGeometry x="120" y="1640" width="120" height="160" as="geometry" />
        </mxCell>
        <mxCell id="bYa10c9uotbPqZzvQVCg-72" value="Testimonial&lt;br&gt;Image - Person" style="rounded=0;whiteSpace=wrap;html=1;fillColor=none;" vertex="1" parent="1">
          <mxGeometry y="1800" width="120" height="160" as="geometry" />
        </mxCell>
        <mxCell id="bYa10c9uotbPqZzvQVCg-73" value="Testimonial&lt;br&gt;Image - Person" style="rounded=0;whiteSpace=wrap;html=1;fillColor=none;" vertex="1" parent="1">
          <mxGeometry x="120" y="1800" width="120" height="160" as="geometry" />
        </mxCell>
        <mxCell id="bYa10c9uotbPqZzvQVCg-74" value="" style="rounded=0;whiteSpace=wrap;html=1;fillColor=#d5e8d4;strokeColor=#82b366;" vertex="1" parent="1">
          <mxGeometry x="240" y="1600" width="240" height="360" as="geometry" />
        </mxCell>
        <mxCell id="bYa10c9uotbPqZzvQVCg-76" value="Gallery Image" style="rounded=0;whiteSpace=wrap;html=1;fillColor=none;" vertex="1" parent="1">
          <mxGeometry x="240" y="1640" width="80" height="80" as="geometry" />
        </mxCell>
        <mxCell id="bYa10c9uotbPqZzvQVCg-93" value="Gallery Image" style="rounded=0;whiteSpace=wrap;html=1;fillColor=none;" vertex="1" parent="1">
          <mxGeometry x="320" y="1640" width="80" height="80" as="geometry" />
        </mxCell>
        <mxCell id="bYa10c9uotbPqZzvQVCg-94" value="Gallery Image" style="rounded=0;whiteSpace=wrap;html=1;fillColor=none;" vertex="1" parent="1">
          <mxGeometry x="400" y="1640" width="80" height="80" as="geometry" />
        </mxCell>
        <mxCell id="bYa10c9uotbPqZzvQVCg-95" value="Gallery Image" style="rounded=0;whiteSpace=wrap;html=1;fillColor=none;" vertex="1" parent="1">
          <mxGeometry x="240" y="1720" width="80" height="80" as="geometry" />
        </mxCell>
        <mxCell id="bYa10c9uotbPqZzvQVCg-96" value="Gallery Image" style="rounded=0;whiteSpace=wrap;html=1;fillColor=none;" vertex="1" parent="1">
          <mxGeometry x="320" y="1720" width="80" height="80" as="geometry" />
        </mxCell>
        <mxCell id="bYa10c9uotbPqZzvQVCg-97" value="Gallery Image" style="rounded=0;whiteSpace=wrap;html=1;fillColor=none;" vertex="1" parent="1">
          <mxGeometry x="400" y="1720" width="80" height="80" as="geometry" />
        </mxCell>
        <mxCell id="bYa10c9uotbPqZzvQVCg-98" value="Gallery Image" style="rounded=0;whiteSpace=wrap;html=1;fillColor=none;" vertex="1" parent="1">
          <mxGeometry x="240" y="1800" width="80" height="80" as="geometry" />
        </mxCell>
        <mxCell id="bYa10c9uotbPqZzvQVCg-99" value="Gallery Image" style="rounded=0;whiteSpace=wrap;html=1;fillColor=none;" vertex="1" parent="1">
          <mxGeometry x="320" y="1800" width="80" height="80" as="geometry" />
        </mxCell>
        <mxCell id="bYa10c9uotbPqZzvQVCg-100" value="Gallery Image" style="rounded=0;whiteSpace=wrap;html=1;fillColor=none;" vertex="1" parent="1">
          <mxGeometry x="400" y="1800" width="80" height="80" as="geometry" />
        </mxCell>
        <mxCell id="bYa10c9uotbPqZzvQVCg-101" value="Gallery Image" style="rounded=0;whiteSpace=wrap;html=1;fillColor=none;" vertex="1" parent="1">
          <mxGeometry x="240" y="1880" width="80" height="80" as="geometry" />
        </mxCell>
        <mxCell id="bYa10c9uotbPqZzvQVCg-102" value="Gallery Image" style="rounded=0;whiteSpace=wrap;html=1;fillColor=none;" vertex="1" parent="1">
          <mxGeometry x="320" y="1880" width="80" height="80" as="geometry" />
        </mxCell>
        <mxCell id="bYa10c9uotbPqZzvQVCg-103" value="Gallery Image" style="rounded=0;whiteSpace=wrap;html=1;fillColor=none;" vertex="1" parent="1">
          <mxGeometry x="400" y="1880" width="80" height="80" as="geometry" />
        </mxCell>
        <mxCell id="bYa10c9uotbPqZzvQVCg-104" value="" style="rounded=0;whiteSpace=wrap;html=1;fillColor=none;" vertex="1" parent="1">
          <mxGeometry y="2000" width="480" height="320" as="geometry" />
        </mxCell>
        <mxCell id="bYa10c9uotbPqZzvQVCg-105" value="Pricing Section:&lt;br&gt;&amp;nbsp;- Table for comparing plans.&lt;br&gt;&amp;nbsp;- Clicking a button supposed to scroll down the window to Call to Action Section" style="text;html=1;align=left;verticalAlign=top;whiteSpace=wrap;rounded=0;fillColor=default;strokeColor=default;" vertex="1" parent="1">
          <mxGeometry x="490" y="2000" width="410" height="320" as="geometry" />
        </mxCell>
        <mxCell id="bYa10c9uotbPqZzvQVCg-106" value="Heading" style="rounded=0;whiteSpace=wrap;html=1;fillColor=none;" vertex="1" parent="1">
          <mxGeometry y="2000" width="240" height="40" as="geometry" />
        </mxCell>
        <mxCell id="bYa10c9uotbPqZzvQVCg-107" value="List of Things" style="rounded=0;whiteSpace=wrap;html=1;fillColor=none;" vertex="1" parent="1">
          <mxGeometry y="2040" width="160" height="240" as="geometry" />
        </mxCell>
        <mxCell id="bYa10c9uotbPqZzvQVCg-108" value="List of Values" style="rounded=0;whiteSpace=wrap;html=1;fillColor=none;" vertex="1" parent="1">
          <mxGeometry x="160" y="2040" width="160" height="240" as="geometry" />
        </mxCell>
        <mxCell id="bYa10c9uotbPqZzvQVCg-112" value="Extra Notes" style="rounded=0;whiteSpace=wrap;html=1;fillColor=none;" vertex="1" parent="1">
          <mxGeometry y="2280" width="240" height="40" as="geometry" />
        </mxCell>
        <mxCell id="bYa10c9uotbPqZzvQVCg-114" value="List of Values" style="rounded=0;whiteSpace=wrap;html=1;fillColor=none;" vertex="1" parent="1">
          <mxGeometry x="320" y="2040" width="160" height="240" as="geometry" />
        </mxCell>
        <mxCell id="bYa10c9uotbPqZzvQVCg-115" value="Button" style="rounded=0;whiteSpace=wrap;html=1;fillColor=none;" vertex="1" parent="1">
          <mxGeometry x="200" y="2240" width="80" height="40" as="geometry" />
        </mxCell>
        <mxCell id="bYa10c9uotbPqZzvQVCg-116" value="Button" style="rounded=0;whiteSpace=wrap;html=1;fillColor=none;" vertex="1" parent="1">
          <mxGeometry x="360" y="2240" width="80" height="40" as="geometry" />
        </mxCell>
        <mxCell id="bYa10c9uotbPqZzvQVCg-117" value="" style="rounded=0;whiteSpace=wrap;html=1;fillColor=none;strokeColor=default;" vertex="1" parent="1">
          <mxGeometry y="2360" width="480" height="240" as="geometry" />
        </mxCell>
        <mxCell id="bYa10c9uotbPqZzvQVCg-118" value="Call to Action" style="text;html=1;align=left;verticalAlign=top;whiteSpace=wrap;rounded=0;fillColor=default;strokeColor=default;" vertex="1" parent="1">
          <mxGeometry x="490" y="2360" width="410" height="240" as="geometry" />
        </mxCell>
        <mxCell id="bYa10c9uotbPqZzvQVCg-119" value="Heading" style="rounded=0;whiteSpace=wrap;html=1;fillColor=none;" vertex="1" parent="1">
          <mxGeometry y="2360" width="240" height="80" as="geometry" />
        </mxCell>
        <mxCell id="bYa10c9uotbPqZzvQVCg-121" value="Form Heading" style="rounded=0;whiteSpace=wrap;html=1;fillColor=none;" vertex="1" parent="1">
          <mxGeometry x="80" y="2440" width="320" height="40" as="geometry" />
        </mxCell>
        <mxCell id="bYa10c9uotbPqZzvQVCg-125" value="Form Label" style="rounded=0;whiteSpace=wrap;html=1;fillColor=none;" vertex="1" parent="1">
          <mxGeometry x="80" y="2480" width="80" height="40" as="geometry" />
        </mxCell>
        <mxCell id="bYa10c9uotbPqZzvQVCg-126" value="E-Mail" style="rounded=0;whiteSpace=wrap;html=1;fillColor=none;" vertex="1" parent="1">
          <mxGeometry x="160" y="2480" width="240" height="40" as="geometry" />
        </mxCell>
        <mxCell id="bYa10c9uotbPqZzvQVCg-127" value="Form Label" style="rounded=0;whiteSpace=wrap;html=1;fillColor=none;" vertex="1" parent="1">
          <mxGeometry x="80" y="2520" width="80" height="40" as="geometry" />
        </mxCell>
        <mxCell id="bYa10c9uotbPqZzvQVCg-131" value="City" style="rounded=0;whiteSpace=wrap;html=1;fillColor=none;" vertex="1" parent="1">
          <mxGeometry x="160" y="2520" width="240" height="40" as="geometry" />
        </mxCell>
        <mxCell id="bYa10c9uotbPqZzvQVCg-132" value="Form Submit" style="rounded=0;whiteSpace=wrap;html=1;" vertex="1" parent="1">
          <mxGeometry x="80" y="2560" width="320" height="40" as="geometry" />
        </mxCell>
        <mxCell id="bYa10c9uotbPqZzvQVCg-133" value="" style="rounded=0;whiteSpace=wrap;html=1;fillColor=none;strokeColor=default;" vertex="1" parent="1">
          <mxGeometry y="2640" width="480" height="240" as="geometry" />
        </mxCell>
        <mxCell id="bYa10c9uotbPqZzvQVCg-134" value="Footer" style="text;html=1;align=left;verticalAlign=top;whiteSpace=wrap;rounded=0;fillColor=default;strokeColor=default;" vertex="1" parent="1">
          <mxGeometry x="490" y="2640" width="410" height="240" as="geometry" />
        </mxCell>
        <mxCell id="bYa10c9uotbPqZzvQVCg-135" value="Contact Information" style="rounded=0;whiteSpace=wrap;html=1;fillColor=none;" vertex="1" parent="1">
          <mxGeometry y="2640" width="240" height="120" as="geometry" />
        </mxCell>
        <mxCell id="bYa10c9uotbPqZzvQVCg-136" value="Additional Links Grid" style="rounded=0;whiteSpace=wrap;html=1;fillColor=none;" vertex="1" parent="1">
          <mxGeometry y="2760" width="480" height="120" as="geometry" />
        </mxCell>
      </root>
    </mxGraphModel>
  </diagram>
</mxfile>
